<?xml version="1.0"?>
<svg width="128" height="128" xmlns="http://www.w3.org/2000/svg" xmlns:svg="http://www.w3.org/2000/svg" enable-background="new 0 0 128 128" version="1.1" xml:space="preserve">
 <g class="layer">
  <title>Layer 1</title>
  <g id="svg_1">
   <circle cx="64" cy="64" fill="#bfbfbf" id="svg_2" r="62"/>
   <g id="svg_3">
    <g id="svg_4" transform="matrix(1 0 0 1 0 0)">
     <g id="svg_5">
      <path d="m125.5,71.8c-0.7,-0.1 -1.4,-0.2 -2.1,-0.2l-78.8,0c-8.8,0 -16,7.2 -16,16l0,27.2c10,7 22.2,11.1 35.4,11.1c31.6,0.1 57.6,-23.5 61.5,-54.1z" fill="#F7F7F7" id="svg_6"/>
     </g>
    </g>
    <g id="svg_7">
     <g id="svg_8">
      <path d="m29.9,87.7c0,-8.1 6.6,-14.8 14.8,-14.8l78.8,0c0.7,0 1.3,0.1 1.9,0.1c0.1,-0.8 0.2,-1.6 0.3,-2.5c-0.7,-0.1 -1.5,-0.2 -2.3,-0.2l-78.8,0c-9.5,0 -17.2,7.7 -17.2,17.2l0,26.5c0.8,0.6 1.7,1.2 2.5,1.7l0,-28z" fill="#2e2e2e" id="svg_9"/>
     </g>
    </g>
    <path d="m125.5,71.8c-0.7,-0.1 -1.4,-0.2 -2.1,-0.2l-78.8,0c-8.8,0 -16,7.24 -16,16.08l0,27.34c2.6,1.81 5.3,3.42 8.1,4.83l54.5,0c18.4,-8.95 31.6,-26.84 34.3,-48.05z" fill="#2e2e2e" id="svg_10" opacity="0.2"/>
    <g id="svg_11">
     <path d="m125.5,71.7l-84.6,0c-8.8,0 -16,7.2 -16,16l0,17.2c0,2 1.7,3.7 3.7,3.7l78.4,0c10,-9.6 16.7,-22.5 18.5,-36.9z" fill="#F7F7F7" id="svg_12"/>
    </g>
    <g id="svg_13">
     <path d="m108.3,107.4l-79.7,0c-1.3,0 -2.4,-1.1 -2.4,-2.4l0,-17.3c0,-8.1 6.6,-14.8 14.8,-14.8l84.4,0c0.1,-0.8 0.2,-1.7 0.3,-2.5l-84.8,0c-9.5,0 -17.2,7.7 -17.2,17.2l0,17.2c0,2.7 2.2,4.9 4.9,4.9l77.1,0c0.9,-0.6 1.8,-1.5 2.6,-2.3z" fill="#2e2e2e" id="svg_14"/>
    </g>
    <g id="svg_15" transform="matrix(1 0 0 1 0 0)">
     <path d="m70.2,71.7l0,54c10.2,-1 19.6,-4.5 27.7,-9.8l0,-44.2l-27.7,0z" fill="#fe7742" id="svg_16"/>
    </g>
    <g id="svg_17">
     <path d="m97.8,70.4l-27.6,0c-0.7,0 -1.2,0.6 -1.2,1.2l0,54.1c0.8,-0.1 1.7,-0.1 2.5,-0.2l0,-52.6l25.2,0l0,43.8c0.8,-0.5 1.7,-1.1 2.5,-1.6l0,-43.4c-0.1,-0.7 -0.7,-1.3 -1.4,-1.3z" fill="#2e2e2e" id="svg_18"/>
    </g>
    <g id="svg_19">
     <g id="svg_20">
      <path d="m108,44l-10.2,0c-7.6,0 -13.8,6.2 -13.8,13.8l0,13.8l13.8,0c7.6,0 13.8,-6.2 13.8,-13.8l0,-10.1c0.1,-2 -1.6,-3.7 -3.6,-3.7z" fill="#fe7742" id="svg_21"/>
     </g>
     <path d="m103.4,66.2l-13.9,0l0,-13.9c0,-2.4 0.6,-4.7 1.7,-6.6c-4.3,2.3 -7.2,6.9 -7.2,12.1l0,13.8l13.8,0c5.2,0 9.8,-2.9 12.2,-7.2c-2,1.1 -4.2,1.8 -6.6,1.8z" fill="#593055" id="svg_22" opacity="0.2"/>
     <g id="svg_23">
      <path d="m70.2,44l-10.2,0c-2,0 -3.7,1.7 -3.7,3.7l0,10.2c0,7.6 6.2,13.8 13.8,13.8l13.9,0l0,-13.9c0,-7.6 -6.2,-13.8 -13.8,-13.8z" fill="#fe7742" id="svg_24"/>
     </g>
     <path d="m76.8,45.7c1.1,2 1.7,4.2 1.7,6.6l0,13.8l-13.9,0c-2.4,0 -4.7,-0.6 -6.6,-1.7c2.3,4.3 6.9,7.2 12.2,7.2l13.8,0l0,-13.8c0,-5.2 -2.9,-9.8 -7.2,-12.1z" fill="#593055" id="svg_25" opacity="0.2"/>
     <g id="svg_26">
      <path d="m108,42.8l-10.2,0c-8.3,0 -15.1,6.8 -15.1,15.1l0,13.8c0,0.7 0.6,1.2 1.2,1.2l13.8,0c8.3,0 15.1,-6.8 15.1,-15.1l0,-10.1c0.1,-2.7 -2.1,-4.9 -4.8,-4.9zm2.4,15c0,6.9 -5.7,12.6 -12.6,12.6l-12.5,0l0,-12.6c0,-6.9 5.7,-12.6 12.6,-12.6l10.1,0c1.3,0 2.4,1.1 2.4,2.4l0,10.2z" fill="#2e2e2e" id="svg_27"/>
     </g>
     <g id="svg_28">
      <path d="m70.2,42.8l-10.2,0c-2.7,0 -4.9,2.2 -4.9,4.9l0,10.2c0,8.3 6.8,15.1 15.1,15.1l13.8,0c0.7,0 1.2,-0.6 1.2,-1.2l0,-14c0.1,-8.3 -6.7,-15 -15,-15zm12.6,27.6l-12.6,0c-6.9,0 -12.6,-5.7 -12.6,-12.6l0,-10.1c0,-1.3 1.1,-2.4 2.4,-2.4l10.2,0c6.9,0 12.6,5.7 12.6,12.6l0,12.5z" fill="#2e2e2e" id="svg_29"/>
     </g>
    </g>
   </g>
  </g>
 </g>
</svg>