<svg xmlns="http://www.w3.org/2000/svg" version="1.1" xmlns:xlink="http://www.w3.org/1999/xlink" width="128" height="128"><svg width="128" height="128" xmlns="http://www.w3.org/2000/svg" stroke="null" style="vector-effect: non-scaling-stroke;">

 <g stroke="null">
  <title stroke="null">background</title>
  <rect stroke="null" fill="none" id="SvgjsRect1063" height="602" width="802" y="-1" x="-1"></rect>
 </g>
 <g stroke="null" class="layer">
  <title stroke="null">Layer 1</title>
  <g stroke="null" id="SvgjsG1062">
   <!-- Новый квадрат со скругленными углами -->
   <rect stroke="null" x="-0.01815" y="-0.04691" id="SvgjsRect1061" fill="#bfbfbf" ry="20" rx="20" height="128" width="128"></rect>
   <!-- Группа с подарком, масштабированная и смещенная -->
   <rect stroke="null" id="SvgjsRect1060" height="18" width="42.83334" y="110.16666" x="31.41666" stroke-width="null" fill="#F7F7F7"></rect>
   <ellipse stroke="null" ry="19.08333" rx="20" id="SvgjsEllipse1059" cy="108.91666" cx="107.74999" stroke-width="null" fill="#F7F7F7"></ellipse>
   <g stroke="null" id="SvgjsG1058" transform="translate(0,-5) scale(1.0499999523162842) ">
    <g stroke="null" id="SvgjsG1057">
     <g stroke="null" id="SvgjsG1056">
      <g stroke="null" id="SvgjsG1055">
       <path stroke="null" id="SvgjsPath1054" fill="#2e2e2e" d="m30.3589,93.33072c0,-10.93226 6.6,-19.975 14.8,-19.975l78.8,0c0.7,0 1.3,0.13497 1.9,0.13497c0.1,-1.07973 0.2,-2.15946 0.3,-3.37415c-0.7,-0.13497 -1.5,-0.26993 -2.3,-0.26993l-78.8,0c-9.5,0 -17.2,10.3924 -17.2,23.21419l0,35.76604c0.8,0.8098 1.7,1.61959 2.5,2.29443l0,-37.79053z"></path>
      </g>
     </g>
     <g stroke="null" id="SvgjsG1053">
      <path stroke="null" id="SvgjsPath1052" fill="#F7F7F7" d="m155.10094,71.49659l-109.10712,0c-11.3492,0 -20.63492,7.2 -20.63492,16l0,17.2c0,2 2.19246,3.7 4.77182,3.7l101.11109,0c12.89682,-9.6 21.53769,-22.5 23.85912,-36.9z"></path>
     </g>
     <g stroke="null" id="SvgjsG1051">
      <path stroke="null" id="SvgjsPath1050" fill="#2e2e2e" d="m108.7589,107.19659l-79.7,0c-1.3,0 -2.4,-1.1 -2.4,-2.4l0,-17.3c0,-8.1 6.6,-14.8 14.8,-14.8l84.4,0c0.1,-0.8 0.2,-1.7 0.3,-2.5l-84.8,0c-9.5,0 -17.2,7.7 -17.2,17.2l0,17.2c0,2.7 2.2,4.9 4.9,4.9l77.1,0c0.9,-0.6 1.8,-1.5 2.6,-2.3z"></path>
     </g>
     <g stroke="null" id="SvgjsG1049">
      <path stroke="null" id="SvgjsPath1048" fill="#fe7742" d="m70.32557,71.49659l0,72.33333c10.2,-1.33951 19.6,-6.02778 27.7,-13.12716l0,-59.20617l-27.7,0z"></path>
     </g>
     <g stroke="null" id="SvgjsG1047">
      <path stroke="null" id="SvgjsPath1046" fill="#2e2e2e" d="m98.2589,70.19659l-27.6,0c-0.7,0 -1.2,0.6 -1.2,1.2l0,54.1c0.8,-0.1 1.7,-0.1 2.5,-0.2l0,-52.6l25.2,0l0,43.8c0.8,-0.5 1.7,-1.1 2.5,-1.6l0,-43.4c-0.1,-0.7 -0.7,-1.3 -1.4,-1.3z"></path>
      <path stroke="null" id="SvgjsPath1045" fill="#2e2e2e" d="m70.862,144.44142l27.59376,0c0.69984,0 1.19973,-0.48209 1.19973,-0.96417l0,-43.4677c-0.79982,0.08035 -1.69962,0.08035 -2.49944,0.1607l0,42.26249l-25.1943,0l0,-35.19196c-0.79982,0.40173 -1.69962,0.88382 -2.49944,1.28555l0,34.87058c0.09998,0.56242 0.69985,1.04451 1.39969,1.04451z"></path>
     </g>
     <g stroke="null" id="SvgjsG1044">
      <g stroke="null" id="SvgjsG1043">
       <path stroke="null" id="SvgjsPath1042" fill="#fe7742" d="m108.4589,43.79659l-10.2,0c-7.6,0 -13.8,6.2 -13.8,13.8l0,13.8l13.8,0c7.6,0 13.8,-6.2 13.8,-13.8l0,-10.1c0.1,-2 -1.6,-3.7 -3.6,-3.7z"></path>
      </g>
      <path stroke="null" opacity="0.2" id="SvgjsPath1041" fill="#593055" d="m103.8589,65.99659l-13.9,0l0,-13.9c0,-2.4 0.6,-4.7 1.7,-6.6c-4.3,2.3 -7.2,6.9 -7.2,12.1l0,13.8l13.8,0c5.2,0 9.8,-2.9 12.2,-7.2c-2,1.1 -4.2,1.8 -6.6,1.8z"></path>
      <g stroke="null" id="SvgjsG1040">
       <path stroke="null" id="SvgjsPath1039" fill="#fe7742" d="m70.6589,43.79659l-10.2,0c-2,0 -3.7,1.7 -3.7,3.7l0,10.2c0,7.6 6.2,13.8 13.8,13.8l13.9,0l0,-13.9c0,-7.6 -6.2,-13.8 -13.8,-13.8z"></path>
      </g>
      <path stroke="null" opacity="0.2" id="SvgjsPath1038" fill="#593055" d="m77.2589,45.49659c1.1,2 1.7,4.2 1.7,6.6l0,13.8l-13.9,0c-2.4,0 -4.7,-0.6 -6.6,-1.7c2.3,4.3 6.9,7.2 12.2,7.2l13.8,0l0,-13.8c0,-5.2 -2.9,-9.8 -7.2,-12.1z"></path>
      <g stroke="null" id="SvgjsG1037">
       <path stroke="null" id="SvgjsPath1036" fill="#2e2e2e" d="m108.4589,42.59659l-10.2,0c-8.3,0 -15.1,6.8 -15.1,15.1l0,13.8c0,0.7 0.6,1.2 1.2,1.2l13.8,0c8.3,0 15.1,-6.8 15.1,-15.1l0,-10.1c0.1,-2.7 -2.1,-4.9 -4.8,-4.9zm2.4,15c0,6.9 -5.7,12.6 -12.6,12.6l-12.5,0l0,-12.6c0,-6.9 5.7,-12.6 12.6,-12.6l10.1,0c1.3,0 2.4,1.1 2.4,2.4l0,10.2z"></path>
      </g>
      <g stroke="null" id="SvgjsG1035">
       <path stroke="null" id="SvgjsPath1034" fill="#2e2e2e" d="m70.6589,42.59659l-10.2,0c-2.7,0 -4.9,2.2 -4.9,4.9l0,10.2c0,8.3 6.8,15.1 15.1,15.1l13.8,0c0.7,0 1.2,-0.6 1.2,-1.2l0,-14c0.1,-8.3 -6.7,-15 -15,-15zm12.6,27.6l-12.6,0c-6.9,0 -12.6,-5.7 -12.6,-12.6l0,-10.1c0,-1.3 1.1,-2.4 2.4,-2.4l10.2,0c6.9,0 12.6,5.7 12.6,12.6l0,12.5z"></path>
      </g>
     </g>
     <rect stroke="null" id="SvgjsRect1033" height="2.31264" width="37" y="107.19862" x="104.72346" fill-opacity="null" stroke-opacity="null" stroke-width="null" fill="#2e2e2e"></rect>
    </g>
   </g>
   <path id="SvgjsPath1032" d="m111.41666,127.66666" opacity="0.5" stroke-width="null" stroke="null" fill="#F7F7F7"></path>
  </g>
 </g>
</svg><style>@media (prefers-color-scheme: light) { :root { filter: none; } }
@media (prefers-color-scheme: dark) { :root { filter: none; } }
</style></svg>